<?xml version="1.0" encoding="UTF-8"?>
<svg id="Layer_1" data-name="Layer 1" xmlns="http://www.w3.org/2000/svg" viewBox="0 0 37.73 37.73">
  <defs>
    <style>
      .cls-1 {
        fill: #fff;
      }
    </style>
  </defs>
  <circle class="cls-1" cx="18.87" cy="18.87" r="18.87"/>
  <g id="UAeDvC.tif">
    <g>
      <path d="M22.81,14.16c3.15.78,4.4,1.95,4.68,5.23.18,2.14.12,4.1-1.57,5.59,3.18-1.36,5.84,2.2,3.53,4.81-4.99,5.65-15.96,5.5-21.09.1-2.46-2.59.17-6.29,3.43-4.91-1.65-1.46-1.75-3.51-1.57-5.59.29-3.22,1.59-4.5,4.68-5.23.46-1.22-.48-2.12-.58-3.02-.14-1.28.32-3.17,1.1-4.21.33-.43,1.37-1.15,1.41-1.24.26-.48-.3-1.16.78-1.68.82-.39,1.93-.37,2.67.18.84.62.31.97.62,1.54.09.17.66.4.89.68,1.01,1.22,1.59,2.72,1.58,4.33-.01,1.19-1.01,2.04-.59,3.42ZM22.4,10.64c-2.01.12-3.38-.8-4.71-2.16-.21.97-1.35,1.24-2.13,1.6-.21,1.49.07,2.98.91,4.23,1.19,1.75,1.7.35,2.67.45.27.03.51.33.81.39,2.07.38,2.65-2.99,2.44-4.51ZM22.79,14.57c-.49,1.7-2.13,2.76-3.63,3.53-1.63-.57-3-1.96-3.83-3.43-1.08-.64.5,2.49.63,2.72.67,1.18,1.58,2.21,2.48,3.22l-.56,1.24c2.51-1.28,4.15-3.92,5.26-6.43l-.36-.83ZM13.47,22.23l-.29.29.29.29h11.18l.29-.29-.29-.29h-11.18ZM24.95,23.22h-11.77l1.74,4.79,8.26.02,1.76-4.81ZM23.18,28.72h-8.24v.98h8.24v-.98ZM15.86,30.32c-1.83,2.6,1.38,2.97,3.32,3.1l.47-.29c-.84-.93-.69-1.64-.97-2.76l-2.82-.05Z"/>
      <path d="M18.42,24.83c2.1-.49,2.56,1.61.74,1.74-1.71.11-2.03-1.44-.74-1.74Z"/>
      <path d="M18.47,11.82c-.07,1.23-1.5,1.44-2.13.47l.08-.47h2.06Z"/>
      <path d="M21.81,11.82c-.07,1.23-1.5,1.44-2.13.47l.08-.47h2.06Z"/>
      <path d="M20.24,13.79c.59.64-2.21.74-2.55.39-.59-.64,2.21-.74,2.55-.39Z"/>
      <polygon points="19.45 28.91 22.49 28.91 22.69 29.31 22.47 29.47 19.78 29.47 19.45 28.91"/>
      <rect x="15.33" y="28.91" width=".39" height=".59"/>
    </g>
  </g>
</svg>