<?xml version="1.0" encoding="UTF-8"?>
<svg id="Layer_1" data-name="Layer 1" xmlns="http://www.w3.org/2000/svg" viewBox="0 0 28.58 28.58">
  <defs>
    <style>
      .cls-1 {
        fill: #3aa29a;
      }
    </style>
  </defs>
  <path class="cls-1" d="M19.55,15.55h0c2.21,0,4,1.79,4,4h0c0,2.21-1.79,4-4,4h0c-2.21,0-4-1.79-4-4h0c0-2.21,1.79-4,4-4ZM5.04,16.46v6.16c0,.5.41.91.91.91h6.16c.5,0,.91-.41.91-.91v-6.16c0-.5-.41-.91-.91-.91h-6.16c-.5,0-.91.41-.91.91ZM5.04,5.95v6.16c0,.5.41.91.91.91h16.68c.5,0,.91-.41.91-.91v-6.16c0-.5-.41-.91-.91-.91H5.95c-.5,0-.91.41-.91.91ZM6.21,26.06h16.16c2.04,0,3.69-1.65,3.69-3.69V6.21c0-2.04-1.65-3.69-3.69-3.69H6.21c-2.04,0-3.69,1.65-3.69,3.69v16.16c0,2.04,1.65,3.69,3.69,3.69M6.21,28.58C2.78,28.58,0,25.79,0,22.37V6.21C0,2.78,2.78,0,6.21,0h16.16c3.42,0,6.21,2.78,6.21,6.21v16.16c0,3.42-2.78,6.21-6.21,6.21H6.21Z"/>
</svg>