<?xml version="1.0" encoding="UTF-8"?>
<svg id="Layer_1" data-name="Layer 1" xmlns="http://www.w3.org/2000/svg" viewBox="0 0 38.87 38.87">
  <defs>
    <style>
      .cls-1 {
        fill: #243052;
      }

      .cls-2 {
        fill: #fff;
      }

      .cls-3 {
        fill: #5f6363;
      }
    </style>
  </defs>
  <circle class="cls-2" cx="19.44" cy="19.44" r="19.44"/>
  <g>
    <path class="cls-1" d="M22.2,11.64c0,.07,0,.14-.02.2-.17,1.45-1.32,2.62-2.86,2.56-1.46-.06-2.65-1.3-2.65-2.75s1.26-2.76,2.76-2.76,2.58,1.16,2.74,2.57c.01.06.02.12.02.2Z"/>
    <path class="cls-1" d="M22.2,19.35c0,.07,0,.14-.02.2-.17,1.45-1.32,2.62-2.86,2.56-1.46-.06-2.65-1.3-2.65-2.76s1.26-2.76,2.76-2.76,2.58,1.16,2.74,2.57c.01.06.02.12.02.19Z"/>
    <path class="cls-3" d="M21.15,5.5c0,.08,0,.16-.03.22-.14.85-.83,1.52-1.74,1.49-.9-.04-1.66-.8-1.65-1.71,0-.93.78-1.71,1.71-1.71s1.55.67,1.69,1.49c.02.07.03.14.03.22Z"/>
    <path class="cls-3" d="M21.15,33.37c0,.08,0,.16-.03.22-.14.85-.83,1.52-1.74,1.49-.9-.03-1.66-.8-1.65-1.71,0-.93.78-1.71,1.71-1.71s1.55.67,1.69,1.49c.02.07.03.14.03.22Z"/>
    <path class="cls-3" d="M7.21,19.49c-.04.9-.8,1.66-1.71,1.65-.93,0-1.71-.78-1.71-1.71s.67-1.55,1.49-1.68c.07-.02.14-.03.22-.03.08,0,.16,0,.22.03.85.14,1.52.83,1.49,1.74Z"/>
    <path class="cls-3" d="M35.08,19.49c-.04.9-.8,1.66-1.71,1.65-.93,0-1.71-.78-1.71-1.71s.67-1.55,1.49-1.68c.07-.02.14-.03.22-.03.08,0,.16,0,.22.03.85.14,1.52.83,1.49,1.74Z"/>
    <path class="cls-3" d="M8.24,27.91c-.81.46-1.87.19-2.34-.62-.45-.77-.2-1.7.46-2.23.04-.04.09-.08.16-.11.06-.04.12-.06.18-.08.79-.31,1.71-.07,2.16.7.46.8.19,1.88-.62,2.34Z"/>
    <path class="cls-3" d="M32.35,13.92c-.81.46-1.87.19-2.34-.62-.45-.77-.2-1.7.46-2.22.04-.04.1-.08.16-.11.06-.04.12-.06.18-.08.79-.31,1.71-.07,2.16.7.47.8.19,1.88-.62,2.34Z"/>
    <path class="cls-3" d="M13.89,32.34c-.47.8-1.53,1.09-2.34.62-.77-.45-1.01-1.37-.7-2.16.02-.06.04-.12.08-.18.03-.06.07-.11.11-.16.53-.66,1.45-.91,2.23-.46.8.47,1.09,1.54.61,2.34Z"/>
    <path class="cls-3" d="M27.94,8.26c-.48.8-1.53,1.09-2.34.62-.77-.45-1.01-1.37-.7-2.16.02-.06.04-.12.08-.18.03-.06.07-.11.11-.16.53-.66,1.46-.91,2.23-.46.8.47,1.09,1.54.62,2.34Z"/>
    <path class="cls-3" d="M27.35,32.94c-.77.45-1.69.21-2.23-.46-.04-.04-.08-.09-.11-.16-.04-.06-.06-.12-.08-.18-.31-.79-.08-1.71.7-2.16.8-.47,1.88-.19,2.34.61.46.81.19,1.87-.61,2.34Z"/>
    <path class="cls-3" d="M13.26,8.89c-.77.45-1.69.21-2.23-.46-.04-.04-.08-.09-.11-.16-.04-.06-.06-.12-.08-.18-.31-.79-.08-1.71.7-2.16.8-.47,1.88-.19,2.34.61.46.81.19,1.87-.61,2.34Z"/>
    <path class="cls-3" d="M33.03,27.19c-.45.78-1.37,1.02-2.16.71-.06-.02-.12-.04-.18-.08-.06-.03-.11-.07-.16-.11-.67-.53-.92-1.45-.47-2.22.46-.8,1.54-1.1,2.34-.63.8.47,1.1,1.53.63,2.34Z"/>
    <path class="cls-3" d="M8.81,13.39c-.45.78-1.37,1.02-2.16.71-.06-.02-.12-.04-.18-.08-.06-.03-.11-.07-.16-.11-.67-.53-.92-1.45-.47-2.22.46-.8,1.54-1.1,2.34-.63.8.47,1.1,1.53.63,2.34Z"/>
    <path class="cls-1" d="M22.2,27.07c0,.07,0,.14-.02.2-.17,1.45-1.32,2.62-2.86,2.56-1.46-.06-2.65-1.3-2.65-2.76s1.26-2.76,2.76-2.76,2.58,1.16,2.74,2.57c.01.06.02.12.02.19Z"/>
    <path class="cls-1" d="M14.48,19.47c-.06,1.46-1.3,2.65-2.76,2.65s-2.76-1.26-2.76-2.76,1.16-2.58,2.57-2.74c.06-.01.12-.02.2-.02.07,0,.14,0,.2.02,1.45.17,2.62,1.32,2.56,2.86Z"/>
    <path class="cls-1" d="M15.94,15.85c-1.06,1.06-2.84,1.06-3.91,0-1.06-1.05-1.06-2.85,0-3.91,1.06-1.05,2.67-1.02,3.78-.11.04.03.09.07.13.11.05.04.08.09.11.13.91,1.1.94,2.72-.11,3.78Z"/>
    <path class="cls-1" d="M26.84,26.76c-1.06,1.06-2.84,1.06-3.91,0-1.06-1.05-1.06-2.85,0-3.91,1.06-1.05,2.67-1.02,3.78-.11.04.03.09.06.13.11.05.04.08.09.11.13.91,1.1.94,2.72-.11,3.77Z"/>
    <path class="cls-1" d="M15.94,26.76c-1.05,1.06-2.85,1.06-3.91,0-1.05-1.06-1.02-2.67-.11-3.78.03-.04.06-.09.11-.13.04-.05.09-.08.13-.11,1.1-.91,2.72-.94,3.77.11,1.06,1.06,1.06,2.84,0,3.91Z"/>
    <path class="cls-1" d="M26.84,15.85c-1.05,1.06-2.85,1.06-3.91,0-1.05-1.06-1.02-2.67-.11-3.78.03-.04.07-.09.11-.13.04-.05.09-.08.13-.11,1.1-.91,2.72-.94,3.77.11,1.06,1.06,1.06,2.84,0,3.91Z"/>
  </g>
</svg>