<?xml version="1.0" encoding="UTF-8"?>
<svg id="Layer_1" data-name="Layer 1" xmlns="http://www.w3.org/2000/svg" viewBox="0 0 28.72 28.72">
  <defs>
    <style>
      .cls-1 {
        fill: #faa21b;
      }
    </style>
  </defs>
  <path class="cls-1" d="M27.47,12.49h-4.22c-.52,0-.71-.69-.26-.95l3.65-2.11c.6-.35.81-1.12.46-1.72l-.61-1.06c-.35-.6-1.12-.81-1.72-.46l-3.65,2.11c-.45.26-.96-.25-.7-.7l2.11-3.65c.35-.6.14-1.37-.46-1.71l-1.06-.61c-.6-.35-1.37-.14-1.71.46l-2.11,3.65c-.26.45-.95.27-.95-.26V1.26c0-.69-.56-1.26-1.26-1.26h-1.23c-.69,0-1.26.56-1.26,1.26v4.22c0,.52-.69.71-.95.26l-2.11-3.65c-.35-.6-1.12-.81-1.71-.46l-1.06.61c-.6.35-.81,1.11-.46,1.71l2.11,3.65c.26.45-.25.96-.7.7l-3.65-2.11c-.6-.35-1.37-.14-1.71.46l-.61,1.06c-.35.6-.14,1.37.46,1.72l3.65,2.11c.45.26.27.95-.26.95H1.26c-.69,0-1.26.56-1.26,1.26v1.23c0,.69.56,1.26,1.26,1.26h4.22c.52,0,.71.69.26.96l-3.65,2.11c-.6.35-.81,1.11-.46,1.71l.61,1.06c.35.6,1.11.81,1.71.46l3.65-2.11c.45-.26.96.25.7.7l-2.11,3.65c-.35.6-.14,1.37.46,1.72l1.06.61c.6.35,1.37.14,1.71-.46l2.11-3.65c.26-.45.95-.27.95.26v4.22c0,.69.56,1.26,1.26,1.26h1.23c.69,0,1.26-.56,1.26-1.26v-4.22c0-.52.69-.71.95-.26l2.11,3.65c.35.6,1.11.81,1.71.46l1.06-.61c.6-.35.81-1.12.46-1.72l-2.11-3.65c-.26-.45.25-.96.7-.7l3.65,2.11c.6.35,1.37.14,1.72-.46l.61-1.06c.35-.6.14-1.37-.46-1.71l-3.65-2.11c-.45-.26-.27-.96.26-.96h4.22c.69,0,1.26-.56,1.26-1.26v-1.23c0-.69-.56-1.26-1.26-1.26ZM20.97,14.3l-1.87,1.55c-.21.18-.3.46-.24.72l.6,2.35c.14.53.02,1.09-.32,1.53-.34.43-.86.69-1.4.69-.34,0-.67-.1-.95-.28l-2.05-1.3c-.23-.15-.53-.15-.76,0l-2.05,1.3c-.29.18-.61.28-.95.28-.54,0-1.07-.26-1.4-.69-.34-.44-.45-.99-.32-1.53l.6-2.35c.07-.27-.02-.55-.24-.72l-1.87-1.55c-.56-.47-.78-1.22-.56-1.92.23-.7.84-1.18,1.58-1.22l2.42-.15c.27-.02.52-.19.62-.45l.89-2.26c.27-.68.92-1.12,1.65-1.12s1.38.44,1.65,1.12l.89,2.26c.1.26.34.43.62.45l2.43.15c.73.05,1.35.53,1.58,1.22.23.7,0,1.45-.56,1.92ZM19.99,13.11l-2.62,2.17c-.21.18-.3.46-.24.72l.85,3.3c.05.21-.17.37-.35.26l-2.88-1.83c-.23-.15-.53-.15-.76,0l-2.88,1.83c-.18.11-.41-.05-.35-.26l.85-3.3c.07-.27-.02-.55-.24-.72l-2.62-2.17c-.17-.14-.08-.4.13-.42l3.4-.21c.27-.02.52-.19.62-.45l1.25-3.17c.08-.2.36-.2.44,0l1.25,3.17c.1.26.34.43.62.45l3.4.21c.21.01.3.28.13.42Z"/>
</svg>