<?xml version="1.0" encoding="UTF-8"?>
<svg id="Layer_1" data-name="Layer 1" xmlns="http://www.w3.org/2000/svg" xmlns:xlink="http://www.w3.org/1999/xlink" viewBox="0 0 32.11 32.11">
  <defs>
    <style>
      .cls-1 {
        fill: url(#linear-gradient-2);
      }

      .cls-2 {
        fill: url(#linear-gradient);
      }

      .cls-3 {
        fill: #fff;
      }
    </style>
    <linearGradient id="linear-gradient" x1="22.79" y1="5.43" x2="13.27" y2="20.45" gradientUnits="userSpaceOnUse">
      <stop offset="0" stop-color="#4482a6"/>
      <stop offset=".19" stop-color="#427fa3"/>
      <stop offset=".32" stop-color="#3e769b"/>
      <stop offset=".44" stop-color="#38668d"/>
      <stop offset=".54" stop-color="#2f5179"/>
      <stop offset=".63" stop-color="#243762"/>
    </linearGradient>
    <linearGradient id="linear-gradient-2" x1="15.14" y1="24.71" x2="17.23" y2="24.71" xlink:href="#linear-gradient"/>
  </defs>
  <circle class="cls-3" cx="16.06" cy="16.06" r="16.06"/>
  <g>
    <path class="cls-2" d="M16.06,2.31c-7.59,0-13.75,6.16-13.75,13.75s6.16,13.75,13.75,13.75,13.75-6.16,13.75-13.75S23.65,2.31,16.06,2.31ZM15.4,5.4c0-.48.39-.87.87-.87.24,0,.46.1.61.25.16.16.25.38.25.61v3.31c1.4.41,2.42,1.7,2.42,3.23,0,1.86-1.51,3.37-3.37,3.37s-3.37-1.51-3.37-3.37c0-1.59,1.1-2.92,2.58-3.27v-3.26ZM13.95,25.09c-5.35-.9-9.42-5.4-9.42-10.82,0-5.74,4.56-10.45,10.38-10.94-5.33.87-9.37,5.15-9.37,10.29s3.65,9,8.59,10.14l-.18,1.33ZM10.21,7.27c-1.22,1.49-1.96,3.44-1.96,5.58,0,3.7,2.21,6.84,5.3,8l-.07.76c-3.42-1.14-5.89-4.36-5.89-8.16,0-2.43,1-4.62,2.62-6.18ZM16.18,26.89c-.75,0-1.35-.98-1.35-2.19s.6-2.19,1.35-2.19,1.35.98,1.35,2.19-.6,2.19-1.35,2.19ZM16.18,19.93c-4,0-7.23-3.24-7.23-7.23,0-3.11,1.97-5.77,4.73-6.78l.78,1.55c-1.8.69-3.08,2.44-3.08,4.48,0,2.65,2.15,4.81,4.81,4.81s4.81-2.15,4.81-4.81c0-2.04-1.28-3.79-3.08-4.48l.84-1.53c2.73,1.04,4.66,3.67,4.66,6.76,0,4-3.24,7.23-7.23,7.23ZM24.63,15.03l-.73-.35c.12-.59.19-1.2.19-1.83,0-2.2-.78-4.2-2.06-5.7,1.69,1.57,2.75,3.81,2.75,6.3,0,.54-.05,1.07-.15,1.58ZM25.21,18.78v-2.38h.59s.62-.34.62-4.61c.95,2.42.27,5.02.27,5.02l.94.2-2.42,1.77Z"/>
    <path class="cls-1" d="M16.18,26.4c-.59,0-1.04-.73-1.04-1.7s.45-1.7,1.04-1.7,1.04.73,1.04,1.7-.45,1.7-1.04,1.7ZM16.18,23.73c-.07.01-.32.34-.32.98s.25.97.32.98c.07-.01.32-.34.32-.98s-.25-.96-.32-.98Z"/>
  </g>
</svg>