<?xml version="1.0" encoding="UTF-8"?>
<svg id="Layer_1" data-name="Layer 1" xmlns="http://www.w3.org/2000/svg" viewBox="0 0 124.8 124.8">
  <defs>
    <style>
      .cls-1 {
        fill: #141414;
      }

      .cls-2 {
        fill: #fff;
      }
    </style>
  </defs>
  <circle class="cls-2" cx="62.4" cy="62.4" r="62.4"/>
  <path class="cls-1" d="M86.18,103.85c3.64-2.07,6.99-4.62,9.99-7.62,4.47-4.47,7.93-9.69,10.29-15.51.83-2.05,1.51-4.14,2.04-6.26l9.42,2.43c1.27-5.06,1.82-10.26,1.67-15.45l-.32-1.18-9.69-2.49c-.48-4.22-1.52-8.33-3.13-12.29-1.84-4.53-4.34-8.69-7.46-12.42l6.87-6.93c-.9-1.04-1.84-2.05-2.82-3.03-3.02-3.02-6.3-5.63-9.76-7.82l-6.95,7.17c-1.82-1.04-3.72-1.97-5.68-2.76-5.62-2.28-11.55-3.43-17.62-3.43-5.25,0-10.39.86-15.31,2.56l-2.61-9.39c-5.17,1.72-10.14,4.21-14.73,7.46l-.2.2,2.8,10.06c-1.06.89-2.09,1.83-3.08,2.82-4.47,4.47-7.93,9.69-10.29,15.51-.43,1.06-.82,2.13-1.17,3.21l-9.42-2.48c-1.67,5.34-2.52,10.89-2.57,16.44l9.77,2.45c.22,5.38,1.36,10.63,3.39,15.62,2.36,5.82,5.82,11.04,10.29,15.51.65.65,1.32,1.28,2,1.89l-6.82,6.95c4.26,3.86,8.96,6.95,13.93,9.28l7.32-7.46c5.34,2.04,10.95,3.07,16.7,3.07,2.56,0,5.1-.2,7.6-.61l2.57,9.42c5.41-.98,10.7-2.76,15.7-5.33l-2.73-9.58ZM95.06,54.02l-13.42-3.45,7.74-7.81c2.66,3.43,4.55,7.26,5.68,11.26ZM37.18,42.16l3.44,12.36-9.01-2.37c1.23-3.55,3.09-6.94,5.57-9.99ZM39.51,86.62c-5.09-5.09-8.18-11.41-9.29-18.01l19.6,4.93,10.28-10.28-8.72-31.34c8.09-3.02,17.13-2.78,25.07.72l-15.9,16.4,3.76,14.04,31.03,7.99c-1.4,5.7-4.33,11.1-8.78,15.56-1.34,1.34-2.77,2.55-4.27,3.61l-5.6-19.7-14.04-3.76-21.22,21.63c-.66-.57-1.3-1.16-1.93-1.78ZM57.16,95.84l7.67-7.82,2.21,8.1c-3.28.4-6.62.3-9.88-.28Z"/>
</svg>